<mxfile host="app.diagrams.net" modified="2023-10-18T03:42:49.773Z" agent="Mozilla/5.0 (Windows NT 10.0; Win64; x64) AppleWebKit/537.36 (KHTML, like Gecko) Chrome/118.0.0.0 Safari/537.36" etag="r0EvWpBAyHw_hyGDXNee" version="22.0.4" type="onedrive">
  <diagram id="R2lEEEUBdFMjLlhIrx00" name="Page-1">
    <mxGraphModel grid="1" page="0" gridSize="10" guides="1" tooltips="1" connect="1" arrows="1" fold="1" pageScale="1" pageWidth="1169" pageHeight="827" background="none" math="0" shadow="0" extFonts="Permanent Marker^https://fonts.googleapis.com/css?family=Permanent+Marker">
      <root>
        <mxCell id="0" />
        <mxCell id="1" parent="0" />
        <mxCell id="NmN2kcjJqzy7AaUxx9Se-1" value="Event" style="rounded=0;whiteSpace=wrap;html=1;" vertex="1" parent="1">
          <mxGeometry x="750" y="80" width="120" height="60" as="geometry" />
        </mxCell>
        <mxCell id="NmN2kcjJqzy7AaUxx9Se-2" value="&lt;u&gt;year&lt;/u&gt;" style="ellipse;whiteSpace=wrap;html=1;" vertex="1" parent="1">
          <mxGeometry x="765" y="-20" width="70" height="50" as="geometry" />
        </mxCell>
        <mxCell id="NmN2kcjJqzy7AaUxx9Se-3" value="" style="endArrow=none;html=1;rounded=0;exitX=0.5;exitY=0;exitDx=0;exitDy=0;entryX=0.5;entryY=1;entryDx=0;entryDy=0;" edge="1" parent="1" source="NmN2kcjJqzy7AaUxx9Se-1" target="NmN2kcjJqzy7AaUxx9Se-2">
          <mxGeometry width="50" height="50" relative="1" as="geometry">
            <mxPoint x="920" y="170" as="sourcePoint" />
            <mxPoint x="970" y="120" as="targetPoint" />
          </mxGeometry>
        </mxCell>
        <mxCell id="NmN2kcjJqzy7AaUxx9Se-4" value="topScorer" style="ellipse;whiteSpace=wrap;html=1;" vertex="1" parent="1">
          <mxGeometry x="890" y="130" width="120" height="80" as="geometry" />
        </mxCell>
        <mxCell id="NmN2kcjJqzy7AaUxx9Se-5" value="runnerUp" style="ellipse;whiteSpace=wrap;html=1;" vertex="1" parent="1">
          <mxGeometry x="990" y="50" width="120" height="80" as="geometry" />
        </mxCell>
        <mxCell id="NmN2kcjJqzy7AaUxx9Se-6" value="champion" style="ellipse;whiteSpace=wrap;html=1;" vertex="1" parent="1">
          <mxGeometry x="590" y="170" width="120" height="80" as="geometry" />
        </mxCell>
        <mxCell id="NmN2kcjJqzy7AaUxx9Se-7" value="matches" style="ellipse;whiteSpace=wrap;html=1;" vertex="1" parent="1">
          <mxGeometry x="590" y="60" width="120" height="80" as="geometry" />
        </mxCell>
        <mxCell id="NmN2kcjJqzy7AaUxx9Se-8" value="attendanceAvg" style="ellipse;whiteSpace=wrap;html=1;" vertex="1" parent="1">
          <mxGeometry x="600" y="-50" width="120" height="80" as="geometry" />
        </mxCell>
        <mxCell id="NmN2kcjJqzy7AaUxx9Se-9" value="eventAttendance" style="ellipse;whiteSpace=wrap;html=1;" vertex="1" parent="1">
          <mxGeometry x="740" y="180" width="120" height="80" as="geometry" />
        </mxCell>
        <mxCell id="NmN2kcjJqzy7AaUxx9Se-10" value="host" style="ellipse;whiteSpace=wrap;html=1;" vertex="1" parent="1">
          <mxGeometry x="880" y="-35" width="120" height="80" as="geometry" />
        </mxCell>
        <mxCell id="NmN2kcjJqzy7AaUxx9Se-11" value="" style="endArrow=none;html=1;rounded=0;entryX=0.75;entryY=0;entryDx=0;entryDy=0;exitX=0;exitY=1;exitDx=0;exitDy=0;" edge="1" parent="1" source="NmN2kcjJqzy7AaUxx9Se-10" target="NmN2kcjJqzy7AaUxx9Se-1">
          <mxGeometry width="50" height="50" relative="1" as="geometry">
            <mxPoint x="920" y="170" as="sourcePoint" />
            <mxPoint x="970" y="120" as="targetPoint" />
          </mxGeometry>
        </mxCell>
        <mxCell id="NmN2kcjJqzy7AaUxx9Se-12" value="" style="endArrow=none;html=1;rounded=0;exitX=1;exitY=0;exitDx=0;exitDy=0;entryX=0;entryY=0.5;entryDx=0;entryDy=0;" edge="1" parent="1" source="NmN2kcjJqzy7AaUxx9Se-1" target="NmN2kcjJqzy7AaUxx9Se-5">
          <mxGeometry width="50" height="50" relative="1" as="geometry">
            <mxPoint x="920" y="170" as="sourcePoint" />
            <mxPoint x="970" y="120" as="targetPoint" />
          </mxGeometry>
        </mxCell>
        <mxCell id="NmN2kcjJqzy7AaUxx9Se-13" value="" style="endArrow=none;html=1;rounded=0;entryX=1;entryY=0.5;entryDx=0;entryDy=0;exitX=0;exitY=0;exitDx=0;exitDy=0;" edge="1" parent="1" source="NmN2kcjJqzy7AaUxx9Se-4" target="NmN2kcjJqzy7AaUxx9Se-1">
          <mxGeometry width="50" height="50" relative="1" as="geometry">
            <mxPoint x="920" y="170" as="sourcePoint" />
            <mxPoint x="970" y="120" as="targetPoint" />
          </mxGeometry>
        </mxCell>
        <mxCell id="NmN2kcjJqzy7AaUxx9Se-14" value="" style="endArrow=none;html=1;rounded=0;entryX=0.5;entryY=1;entryDx=0;entryDy=0;exitX=0.5;exitY=0;exitDx=0;exitDy=0;" edge="1" parent="1" source="NmN2kcjJqzy7AaUxx9Se-9" target="NmN2kcjJqzy7AaUxx9Se-1">
          <mxGeometry width="50" height="50" relative="1" as="geometry">
            <mxPoint x="920" y="170" as="sourcePoint" />
            <mxPoint x="970" y="120" as="targetPoint" />
          </mxGeometry>
        </mxCell>
        <mxCell id="NmN2kcjJqzy7AaUxx9Se-15" value="" style="endArrow=none;html=1;rounded=0;entryX=0.25;entryY=1;entryDx=0;entryDy=0;exitX=1;exitY=0;exitDx=0;exitDy=0;" edge="1" parent="1" source="NmN2kcjJqzy7AaUxx9Se-6" target="NmN2kcjJqzy7AaUxx9Se-1">
          <mxGeometry width="50" height="50" relative="1" as="geometry">
            <mxPoint x="920" y="170" as="sourcePoint" />
            <mxPoint x="970" y="120" as="targetPoint" />
          </mxGeometry>
        </mxCell>
        <mxCell id="NmN2kcjJqzy7AaUxx9Se-16" value="" style="endArrow=none;html=1;rounded=0;entryX=0;entryY=0.5;entryDx=0;entryDy=0;exitX=1;exitY=0.5;exitDx=0;exitDy=0;" edge="1" parent="1" source="NmN2kcjJqzy7AaUxx9Se-7" target="NmN2kcjJqzy7AaUxx9Se-1">
          <mxGeometry width="50" height="50" relative="1" as="geometry">
            <mxPoint x="920" y="170" as="sourcePoint" />
            <mxPoint x="970" y="120" as="targetPoint" />
          </mxGeometry>
        </mxCell>
        <mxCell id="NmN2kcjJqzy7AaUxx9Se-17" value="" style="endArrow=none;html=1;rounded=0;entryX=0;entryY=0;entryDx=0;entryDy=0;exitX=1;exitY=1;exitDx=0;exitDy=0;" edge="1" parent="1" source="NmN2kcjJqzy7AaUxx9Se-8" target="NmN2kcjJqzy7AaUxx9Se-1">
          <mxGeometry width="50" height="50" relative="1" as="geometry">
            <mxPoint x="920" y="170" as="sourcePoint" />
            <mxPoint x="970" y="120" as="targetPoint" />
          </mxGeometry>
        </mxCell>
        <mxCell id="NmN2kcjJqzy7AaUxx9Se-18" value="Match" style="rounded=0;whiteSpace=wrap;html=1;" vertex="1" parent="1">
          <mxGeometry x="210" y="-260" width="120" height="60" as="geometry" />
        </mxCell>
        <mxCell id="NmN2kcjJqzy7AaUxx9Se-19" value="&lt;u&gt;matchID&lt;/u&gt;" style="ellipse;whiteSpace=wrap;html=1;" vertex="1" parent="1">
          <mxGeometry x="225" y="-360" width="70" height="50" as="geometry" />
        </mxCell>
        <mxCell id="NmN2kcjJqzy7AaUxx9Se-20" value="" style="endArrow=none;html=1;rounded=0;exitX=0.5;exitY=0;exitDx=0;exitDy=0;entryX=0.5;entryY=1;entryDx=0;entryDy=0;" edge="1" parent="1" source="NmN2kcjJqzy7AaUxx9Se-18" target="NmN2kcjJqzy7AaUxx9Se-19">
          <mxGeometry width="50" height="50" relative="1" as="geometry">
            <mxPoint x="380" y="-170" as="sourcePoint" />
            <mxPoint x="430" y="-220" as="targetPoint" />
          </mxGeometry>
        </mxCell>
        <mxCell id="NmN2kcjJqzy7AaUxx9Se-21" value="round" style="ellipse;whiteSpace=wrap;html=1;" vertex="1" parent="1">
          <mxGeometry x="350" y="-210" width="120" height="80" as="geometry" />
        </mxCell>
        <mxCell id="NmN2kcjJqzy7AaUxx9Se-22" value="score" style="ellipse;whiteSpace=wrap;html=1;" vertex="1" parent="1">
          <mxGeometry x="450" y="-290" width="120" height="80" as="geometry" />
        </mxCell>
        <mxCell id="NmN2kcjJqzy7AaUxx9Se-23" value="attendance" style="ellipse;whiteSpace=wrap;html=1;" vertex="1" parent="1">
          <mxGeometry x="50" y="-170" width="120" height="80" as="geometry" />
        </mxCell>
        <mxCell id="NmN2kcjJqzy7AaUxx9Se-24" value="referee" style="ellipse;whiteSpace=wrap;html=1;" vertex="1" parent="1">
          <mxGeometry x="50" y="-280" width="120" height="80" as="geometry" />
        </mxCell>
        <mxCell id="NmN2kcjJqzy7AaUxx9Se-25" value="notes" style="ellipse;whiteSpace=wrap;html=1;" vertex="1" parent="1">
          <mxGeometry x="60" y="-390" width="120" height="80" as="geometry" />
        </mxCell>
        <mxCell id="NmN2kcjJqzy7AaUxx9Se-26" value="venue" style="ellipse;whiteSpace=wrap;html=1;" vertex="1" parent="1">
          <mxGeometry x="200" y="-160" width="120" height="80" as="geometry" />
        </mxCell>
        <mxCell id="NmN2kcjJqzy7AaUxx9Se-27" value="date" style="ellipse;whiteSpace=wrap;html=1;" vertex="1" parent="1">
          <mxGeometry x="340" y="-375" width="120" height="80" as="geometry" />
        </mxCell>
        <mxCell id="NmN2kcjJqzy7AaUxx9Se-28" value="" style="endArrow=none;html=1;rounded=0;entryX=0.75;entryY=0;entryDx=0;entryDy=0;exitX=0;exitY=1;exitDx=0;exitDy=0;" edge="1" parent="1" source="NmN2kcjJqzy7AaUxx9Se-27" target="NmN2kcjJqzy7AaUxx9Se-18">
          <mxGeometry width="50" height="50" relative="1" as="geometry">
            <mxPoint x="380" y="-170" as="sourcePoint" />
            <mxPoint x="430" y="-220" as="targetPoint" />
          </mxGeometry>
        </mxCell>
        <mxCell id="NmN2kcjJqzy7AaUxx9Se-29" value="" style="endArrow=none;html=1;rounded=0;exitX=1;exitY=0;exitDx=0;exitDy=0;entryX=0;entryY=0.5;entryDx=0;entryDy=0;" edge="1" parent="1" source="NmN2kcjJqzy7AaUxx9Se-18" target="NmN2kcjJqzy7AaUxx9Se-22">
          <mxGeometry width="50" height="50" relative="1" as="geometry">
            <mxPoint x="380" y="-170" as="sourcePoint" />
            <mxPoint x="430" y="-220" as="targetPoint" />
          </mxGeometry>
        </mxCell>
        <mxCell id="NmN2kcjJqzy7AaUxx9Se-30" value="" style="endArrow=none;html=1;rounded=0;entryX=1;entryY=0.5;entryDx=0;entryDy=0;exitX=0;exitY=0;exitDx=0;exitDy=0;" edge="1" parent="1" source="NmN2kcjJqzy7AaUxx9Se-21" target="NmN2kcjJqzy7AaUxx9Se-18">
          <mxGeometry width="50" height="50" relative="1" as="geometry">
            <mxPoint x="380" y="-170" as="sourcePoint" />
            <mxPoint x="430" y="-220" as="targetPoint" />
          </mxGeometry>
        </mxCell>
        <mxCell id="NmN2kcjJqzy7AaUxx9Se-31" value="" style="endArrow=none;html=1;rounded=0;entryX=0.5;entryY=1;entryDx=0;entryDy=0;exitX=0.5;exitY=0;exitDx=0;exitDy=0;" edge="1" parent="1" source="NmN2kcjJqzy7AaUxx9Se-26" target="NmN2kcjJqzy7AaUxx9Se-18">
          <mxGeometry width="50" height="50" relative="1" as="geometry">
            <mxPoint x="380" y="-170" as="sourcePoint" />
            <mxPoint x="430" y="-220" as="targetPoint" />
          </mxGeometry>
        </mxCell>
        <mxCell id="NmN2kcjJqzy7AaUxx9Se-32" value="" style="endArrow=none;html=1;rounded=0;entryX=0.25;entryY=1;entryDx=0;entryDy=0;exitX=1;exitY=0;exitDx=0;exitDy=0;" edge="1" parent="1" source="NmN2kcjJqzy7AaUxx9Se-23" target="NmN2kcjJqzy7AaUxx9Se-18">
          <mxGeometry width="50" height="50" relative="1" as="geometry">
            <mxPoint x="380" y="-170" as="sourcePoint" />
            <mxPoint x="430" y="-220" as="targetPoint" />
          </mxGeometry>
        </mxCell>
        <mxCell id="NmN2kcjJqzy7AaUxx9Se-33" value="" style="endArrow=none;html=1;rounded=0;entryX=0;entryY=0.5;entryDx=0;entryDy=0;exitX=1;exitY=0.5;exitDx=0;exitDy=0;" edge="1" parent="1" source="NmN2kcjJqzy7AaUxx9Se-24" target="NmN2kcjJqzy7AaUxx9Se-18">
          <mxGeometry width="50" height="50" relative="1" as="geometry">
            <mxPoint x="380" y="-170" as="sourcePoint" />
            <mxPoint x="430" y="-220" as="targetPoint" />
          </mxGeometry>
        </mxCell>
        <mxCell id="NmN2kcjJqzy7AaUxx9Se-34" value="" style="endArrow=none;html=1;rounded=0;entryX=0;entryY=0;entryDx=0;entryDy=0;exitX=1;exitY=1;exitDx=0;exitDy=0;" edge="1" parent="1" source="NmN2kcjJqzy7AaUxx9Se-25" target="NmN2kcjJqzy7AaUxx9Se-18">
          <mxGeometry width="50" height="50" relative="1" as="geometry">
            <mxPoint x="380" y="-170" as="sourcePoint" />
            <mxPoint x="430" y="-220" as="targetPoint" />
          </mxGeometry>
        </mxCell>
        <mxCell id="NmN2kcjJqzy7AaUxx9Se-35" value="year" style="ellipse;whiteSpace=wrap;html=1;" vertex="1" parent="1">
          <mxGeometry x="140" y="-480" width="120" height="80" as="geometry" />
        </mxCell>
        <mxCell id="NmN2kcjJqzy7AaUxx9Se-36" value="" style="endArrow=none;html=1;rounded=0;exitX=0.25;exitY=0;exitDx=0;exitDy=0;entryX=0.5;entryY=1;entryDx=0;entryDy=0;" edge="1" parent="1" source="NmN2kcjJqzy7AaUxx9Se-18" target="NmN2kcjJqzy7AaUxx9Se-35">
          <mxGeometry width="50" height="50" relative="1" as="geometry">
            <mxPoint x="460" y="-230" as="sourcePoint" />
            <mxPoint x="510" y="-280" as="targetPoint" />
          </mxGeometry>
        </mxCell>
        <mxCell id="NmN2kcjJqzy7AaUxx9Se-37" value="Venue" style="rounded=0;whiteSpace=wrap;html=1;" vertex="1" parent="1">
          <mxGeometry x="770" y="-480" width="120" height="60" as="geometry" />
        </mxCell>
        <mxCell id="NmN2kcjJqzy7AaUxx9Se-38" value="&lt;u&gt;venueName&lt;/u&gt;" style="ellipse;whiteSpace=wrap;html=1;" vertex="1" parent="1">
          <mxGeometry x="700" y="-600" width="120" height="80" as="geometry" />
        </mxCell>
        <mxCell id="NmN2kcjJqzy7AaUxx9Se-39" value="location" style="ellipse;whiteSpace=wrap;html=1;" vertex="1" parent="1">
          <mxGeometry x="840" y="-590" width="120" height="80" as="geometry" />
        </mxCell>
        <mxCell id="NmN2kcjJqzy7AaUxx9Se-40" value="" style="endArrow=none;html=1;rounded=0;entryX=0;entryY=0;entryDx=0;entryDy=0;exitX=1;exitY=1;exitDx=0;exitDy=0;" edge="1" parent="1" source="NmN2kcjJqzy7AaUxx9Se-38" target="NmN2kcjJqzy7AaUxx9Se-37">
          <mxGeometry width="50" height="50" relative="1" as="geometry">
            <mxPoint x="460" y="-230" as="sourcePoint" />
            <mxPoint x="510" y="-280" as="targetPoint" />
          </mxGeometry>
        </mxCell>
        <mxCell id="NmN2kcjJqzy7AaUxx9Se-41" value="" style="endArrow=none;html=1;rounded=0;entryX=1;entryY=0;entryDx=0;entryDy=0;exitX=0.5;exitY=1;exitDx=0;exitDy=0;" edge="1" parent="1" source="NmN2kcjJqzy7AaUxx9Se-39" target="NmN2kcjJqzy7AaUxx9Se-37">
          <mxGeometry width="50" height="50" relative="1" as="geometry">
            <mxPoint x="460" y="-230" as="sourcePoint" />
            <mxPoint x="510" y="-280" as="targetPoint" />
          </mxGeometry>
        </mxCell>
        <mxCell id="NmN2kcjJqzy7AaUxx9Se-42" value="Team" style="rounded=0;whiteSpace=wrap;html=1;" vertex="1" parent="1">
          <mxGeometry x="800" y="-250" width="120" height="60" as="geometry" />
        </mxCell>
        <mxCell id="NmN2kcjJqzy7AaUxx9Se-43" value="&lt;u&gt;teamName&lt;/u&gt;" style="ellipse;whiteSpace=wrap;html=1;" vertex="1" parent="1">
          <mxGeometry x="730" y="-370" width="120" height="80" as="geometry" />
        </mxCell>
        <mxCell id="NmN2kcjJqzy7AaUxx9Se-44" value="manager" style="ellipse;whiteSpace=wrap;html=1;" vertex="1" parent="1">
          <mxGeometry x="910" y="-390" width="120" height="80" as="geometry" />
        </mxCell>
        <mxCell id="NmN2kcjJqzy7AaUxx9Se-45" value="" style="endArrow=none;html=1;rounded=0;entryX=0;entryY=0;entryDx=0;entryDy=0;exitX=1;exitY=1;exitDx=0;exitDy=0;" edge="1" parent="1" source="NmN2kcjJqzy7AaUxx9Se-43" target="NmN2kcjJqzy7AaUxx9Se-42">
          <mxGeometry width="50" height="50" relative="1" as="geometry">
            <mxPoint x="490" as="sourcePoint" />
            <mxPoint x="540" y="-50" as="targetPoint" />
          </mxGeometry>
        </mxCell>
        <mxCell id="NmN2kcjJqzy7AaUxx9Se-46" value="" style="endArrow=none;html=1;rounded=0;entryX=1;entryY=0;entryDx=0;entryDy=0;exitX=0.5;exitY=1;exitDx=0;exitDy=0;" edge="1" parent="1" source="NmN2kcjJqzy7AaUxx9Se-44" target="NmN2kcjJqzy7AaUxx9Se-42">
          <mxGeometry width="50" height="50" relative="1" as="geometry">
            <mxPoint x="490" as="sourcePoint" />
            <mxPoint x="540" y="-50" as="targetPoint" />
          </mxGeometry>
        </mxCell>
        <mxCell id="NmN2kcjJqzy7AaUxx9Se-47" value="&lt;u&gt;year&lt;/u&gt;" style="ellipse;whiteSpace=wrap;html=1;" vertex="1" parent="1">
          <mxGeometry x="630" y="-290" width="120" height="80" as="geometry" />
        </mxCell>
        <mxCell id="NmN2kcjJqzy7AaUxx9Se-48" value="captain" style="ellipse;whiteSpace=wrap;html=1;" vertex="1" parent="1">
          <mxGeometry x="960" y="-270" width="120" height="80" as="geometry" />
        </mxCell>
        <mxCell id="NmN2kcjJqzy7AaUxx9Se-49" value="" style="endArrow=none;html=1;rounded=0;entryX=1;entryY=0.5;entryDx=0;entryDy=0;exitX=0;exitY=0.5;exitDx=0;exitDy=0;" edge="1" parent="1" source="NmN2kcjJqzy7AaUxx9Se-42" target="NmN2kcjJqzy7AaUxx9Se-47">
          <mxGeometry width="50" height="50" relative="1" as="geometry">
            <mxPoint x="460" y="-230" as="sourcePoint" />
            <mxPoint x="510" y="-280" as="targetPoint" />
          </mxGeometry>
        </mxCell>
        <mxCell id="NmN2kcjJqzy7AaUxx9Se-50" value="" style="endArrow=none;html=1;rounded=0;exitX=1;exitY=0.5;exitDx=0;exitDy=0;entryX=0;entryY=0.5;entryDx=0;entryDy=0;" edge="1" parent="1" source="NmN2kcjJqzy7AaUxx9Se-42" target="NmN2kcjJqzy7AaUxx9Se-48">
          <mxGeometry width="50" height="50" relative="1" as="geometry">
            <mxPoint x="460" y="-230" as="sourcePoint" />
            <mxPoint x="510" y="-280" as="targetPoint" />
          </mxGeometry>
        </mxCell>
        <mxCell id="NmN2kcjJqzy7AaUxx9Se-51" value="Coach" style="rounded=0;whiteSpace=wrap;html=1;" vertex="1" parent="1">
          <mxGeometry x="1200" y="-530" width="120" height="60" as="geometry" />
        </mxCell>
        <mxCell id="NmN2kcjJqzy7AaUxx9Se-52" value="&lt;u&gt;coachName&lt;/u&gt;" style="ellipse;whiteSpace=wrap;html=1;" vertex="1" parent="1">
          <mxGeometry x="1060" y="-640" width="120" height="80" as="geometry" />
        </mxCell>
        <mxCell id="NmN2kcjJqzy7AaUxx9Se-54" value="" style="endArrow=none;html=1;rounded=0;entryX=0;entryY=0;entryDx=0;entryDy=0;exitX=1;exitY=1;exitDx=0;exitDy=0;" edge="1" parent="1" source="NmN2kcjJqzy7AaUxx9Se-52" target="NmN2kcjJqzy7AaUxx9Se-51">
          <mxGeometry width="50" height="50" relative="1" as="geometry">
            <mxPoint x="890" y="-280" as="sourcePoint" />
            <mxPoint x="940" y="-330" as="targetPoint" />
          </mxGeometry>
        </mxCell>
        <mxCell id="NmN2kcjJqzy7AaUxx9Se-56" value="Stage" style="rounded=0;whiteSpace=wrap;html=1;" vertex="1" parent="1">
          <mxGeometry x="400" y="-570" width="120" height="60" as="geometry" />
        </mxCell>
        <mxCell id="NmN2kcjJqzy7AaUxx9Se-57" value="&lt;u&gt;round&lt;/u&gt;" style="ellipse;whiteSpace=wrap;html=1;" vertex="1" parent="1">
          <mxGeometry x="330" y="-690" width="120" height="80" as="geometry" />
        </mxCell>
        <mxCell id="NmN2kcjJqzy7AaUxx9Se-58" value="&lt;u&gt;year&lt;/u&gt;" style="ellipse;whiteSpace=wrap;html=1;" vertex="1" parent="1">
          <mxGeometry x="470" y="-680" width="120" height="80" as="geometry" />
        </mxCell>
        <mxCell id="NmN2kcjJqzy7AaUxx9Se-59" value="" style="endArrow=none;html=1;rounded=0;entryX=0;entryY=0;entryDx=0;entryDy=0;exitX=1;exitY=1;exitDx=0;exitDy=0;" edge="1" parent="1" source="NmN2kcjJqzy7AaUxx9Se-57" target="NmN2kcjJqzy7AaUxx9Se-56">
          <mxGeometry width="50" height="50" relative="1" as="geometry">
            <mxPoint x="90" y="-320" as="sourcePoint" />
            <mxPoint x="140" y="-370" as="targetPoint" />
          </mxGeometry>
        </mxCell>
        <mxCell id="NmN2kcjJqzy7AaUxx9Se-60" value="" style="endArrow=none;html=1;rounded=0;entryX=1;entryY=0;entryDx=0;entryDy=0;exitX=0.5;exitY=1;exitDx=0;exitDy=0;" edge="1" parent="1" source="NmN2kcjJqzy7AaUxx9Se-58" target="NmN2kcjJqzy7AaUxx9Se-56">
          <mxGeometry width="50" height="50" relative="1" as="geometry">
            <mxPoint x="90" y="-320" as="sourcePoint" />
            <mxPoint x="140" y="-370" as="targetPoint" />
          </mxGeometry>
        </mxCell>
        <mxCell id="NmN2kcjJqzy7AaUxx9Se-61" value="Winner" style="rounded=0;whiteSpace=wrap;html=1;" vertex="1" parent="1">
          <mxGeometry x="1300" y="-190" width="120" height="60" as="geometry" />
        </mxCell>
        <mxCell id="NmN2kcjJqzy7AaUxx9Se-62" value="&lt;u&gt;score&lt;/u&gt;" style="ellipse;whiteSpace=wrap;html=1;" vertex="1" parent="1">
          <mxGeometry x="1230" y="-310" width="120" height="80" as="geometry" />
        </mxCell>
        <mxCell id="NmN2kcjJqzy7AaUxx9Se-63" value="round" style="ellipse;whiteSpace=wrap;html=1;" vertex="1" parent="1">
          <mxGeometry x="1370" y="-300" width="120" height="80" as="geometry" />
        </mxCell>
        <mxCell id="NmN2kcjJqzy7AaUxx9Se-64" value="" style="endArrow=none;html=1;rounded=0;entryX=0;entryY=0;entryDx=0;entryDy=0;exitX=1;exitY=1;exitDx=0;exitDy=0;" edge="1" parent="1" source="NmN2kcjJqzy7AaUxx9Se-62" target="NmN2kcjJqzy7AaUxx9Se-61">
          <mxGeometry width="50" height="50" relative="1" as="geometry">
            <mxPoint x="990" y="60" as="sourcePoint" />
            <mxPoint x="1040" y="10" as="targetPoint" />
          </mxGeometry>
        </mxCell>
        <mxCell id="NmN2kcjJqzy7AaUxx9Se-65" value="" style="endArrow=none;html=1;rounded=0;entryX=1;entryY=0;entryDx=0;entryDy=0;exitX=0.5;exitY=1;exitDx=0;exitDy=0;" edge="1" parent="1" source="NmN2kcjJqzy7AaUxx9Se-63" target="NmN2kcjJqzy7AaUxx9Se-61">
          <mxGeometry width="50" height="50" relative="1" as="geometry">
            <mxPoint x="990" y="60" as="sourcePoint" />
            <mxPoint x="1040" y="10" as="targetPoint" />
          </mxGeometry>
        </mxCell>
        <mxCell id="NmN2kcjJqzy7AaUxx9Se-66" value="matchID" style="ellipse;whiteSpace=wrap;html=1;" vertex="1" parent="1">
          <mxGeometry x="1480" y="-190" width="120" height="80" as="geometry" />
        </mxCell>
        <mxCell id="NmN2kcjJqzy7AaUxx9Se-67" value="" style="endArrow=none;html=1;rounded=0;entryX=0;entryY=0.5;entryDx=0;entryDy=0;exitX=1;exitY=0.5;exitDx=0;exitDy=0;" edge="1" parent="1" source="NmN2kcjJqzy7AaUxx9Se-61" target="NmN2kcjJqzy7AaUxx9Se-66">
          <mxGeometry width="50" height="50" relative="1" as="geometry">
            <mxPoint x="920" y="-340" as="sourcePoint" />
            <mxPoint x="970" y="-390" as="targetPoint" />
          </mxGeometry>
        </mxCell>
        <mxCell id="NmN2kcjJqzy7AaUxx9Se-68" value="Official" style="rounded=0;whiteSpace=wrap;html=1;" vertex="1" parent="1">
          <mxGeometry x="-320" y="-580" width="120" height="60" as="geometry" />
        </mxCell>
        <mxCell id="NmN2kcjJqzy7AaUxx9Se-69" value="&lt;u&gt;officialName&lt;/u&gt;" style="ellipse;whiteSpace=wrap;html=1;" vertex="1" parent="1">
          <mxGeometry x="-390" y="-700" width="120" height="80" as="geometry" />
        </mxCell>
        <mxCell id="NmN2kcjJqzy7AaUxx9Se-70" value="&lt;u&gt;matchID&lt;/u&gt;" style="ellipse;whiteSpace=wrap;html=1;" vertex="1" parent="1">
          <mxGeometry x="-250" y="-690" width="120" height="80" as="geometry" />
        </mxCell>
        <mxCell id="NmN2kcjJqzy7AaUxx9Se-71" value="" style="endArrow=none;html=1;rounded=0;entryX=0;entryY=0;entryDx=0;entryDy=0;exitX=1;exitY=1;exitDx=0;exitDy=0;" edge="1" parent="1" source="NmN2kcjJqzy7AaUxx9Se-69" target="NmN2kcjJqzy7AaUxx9Se-68">
          <mxGeometry width="50" height="50" relative="1" as="geometry">
            <mxPoint x="-630" y="-330" as="sourcePoint" />
            <mxPoint x="-580" y="-380" as="targetPoint" />
          </mxGeometry>
        </mxCell>
        <mxCell id="NmN2kcjJqzy7AaUxx9Se-72" value="" style="endArrow=none;html=1;rounded=0;entryX=1;entryY=0;entryDx=0;entryDy=0;exitX=0.5;exitY=1;exitDx=0;exitDy=0;" edge="1" parent="1" source="NmN2kcjJqzy7AaUxx9Se-70" target="NmN2kcjJqzy7AaUxx9Se-68">
          <mxGeometry width="50" height="50" relative="1" as="geometry">
            <mxPoint x="-630" y="-330" as="sourcePoint" />
            <mxPoint x="-580" y="-380" as="targetPoint" />
          </mxGeometry>
        </mxCell>
        <mxCell id="NmN2kcjJqzy7AaUxx9Se-74" value="&lt;u&gt;r&lt;/u&gt;o&lt;u&gt;l&lt;/u&gt;e&lt;u&gt;&amp;nbsp;&lt;/u&gt;" style="ellipse;whiteSpace=wrap;html=1;fontStyle=0;" vertex="1" parent="1">
          <mxGeometry x="-660" y="-510" width="120" height="80" as="geometry" />
        </mxCell>
        <mxCell id="NmN2kcjJqzy7AaUxx9Se-75" value="referee" style="ellipse;whiteSpace=wrap;html=1;" vertex="1" parent="1">
          <mxGeometry x="-520" y="-500" width="120" height="80" as="geometry" />
        </mxCell>
        <mxCell id="NmN2kcjJqzy7AaUxx9Se-76" value="" style="endArrow=none;html=1;rounded=0;entryX=0;entryY=0;entryDx=0;entryDy=0;exitX=1;exitY=1;exitDx=0;exitDy=0;" edge="1" parent="1" source="NmN2kcjJqzy7AaUxx9Se-74" target="NmN2kcjJqzy7AaUxx9Se-73">
          <mxGeometry width="50" height="50" relative="1" as="geometry">
            <mxPoint x="-900" y="-140" as="sourcePoint" />
            <mxPoint x="-850" y="-190" as="targetPoint" />
          </mxGeometry>
        </mxCell>
        <mxCell id="NmN2kcjJqzy7AaUxx9Se-77" value="" style="endArrow=none;html=1;rounded=0;entryX=1;entryY=0;entryDx=0;entryDy=0;exitX=0.5;exitY=1;exitDx=0;exitDy=0;" edge="1" parent="1" source="NmN2kcjJqzy7AaUxx9Se-75" target="NmN2kcjJqzy7AaUxx9Se-73">
          <mxGeometry width="50" height="50" relative="1" as="geometry">
            <mxPoint x="-900" y="-140" as="sourcePoint" />
            <mxPoint x="-850" y="-190" as="targetPoint" />
          </mxGeometry>
        </mxCell>
        <mxCell id="NmN2kcjJqzy7AaUxx9Se-79" value="aR1" style="ellipse;whiteSpace=wrap;html=1;" vertex="1" parent="1">
          <mxGeometry x="-430" y="-395" width="120" height="80" as="geometry" />
        </mxCell>
        <mxCell id="NmN2kcjJqzy7AaUxx9Se-80" value="aR2" style="ellipse;whiteSpace=wrap;html=1;" vertex="1" parent="1">
          <mxGeometry x="-510" y="-300" width="120" height="80" as="geometry" />
        </mxCell>
        <mxCell id="NmN2kcjJqzy7AaUxx9Se-81" value="4th" style="ellipse;whiteSpace=wrap;html=1;" vertex="1" parent="1">
          <mxGeometry x="-670" y="-300" width="120" height="80" as="geometry" />
        </mxCell>
        <mxCell id="NmN2kcjJqzy7AaUxx9Se-82" value="vAR" style="ellipse;whiteSpace=wrap;html=1;" vertex="1" parent="1">
          <mxGeometry x="-760" y="-395" width="120" height="80" as="geometry" />
        </mxCell>
        <mxCell id="NmN2kcjJqzy7AaUxx9Se-83" value="" style="endArrow=none;html=1;rounded=0;exitX=1;exitY=0.5;exitDx=0;exitDy=0;entryX=0;entryY=0.5;entryDx=0;entryDy=0;" edge="1" parent="1" source="NmN2kcjJqzy7AaUxx9Se-73" target="NmN2kcjJqzy7AaUxx9Se-79">
          <mxGeometry width="50" height="50" relative="1" as="geometry">
            <mxPoint x="-210" y="-410" as="sourcePoint" />
            <mxPoint x="-120" y="-460" as="targetPoint" />
          </mxGeometry>
        </mxCell>
        <mxCell id="NmN2kcjJqzy7AaUxx9Se-84" value="" style="endArrow=none;html=1;rounded=0;exitX=0.75;exitY=1;exitDx=0;exitDy=0;entryX=0;entryY=0;entryDx=0;entryDy=0;" edge="1" parent="1" source="NmN2kcjJqzy7AaUxx9Se-73" target="NmN2kcjJqzy7AaUxx9Se-80">
          <mxGeometry width="50" height="50" relative="1" as="geometry">
            <mxPoint x="-170" y="-410" as="sourcePoint" />
            <mxPoint x="-120" y="-460" as="targetPoint" />
          </mxGeometry>
        </mxCell>
        <mxCell id="NmN2kcjJqzy7AaUxx9Se-85" value="" style="endArrow=none;html=1;rounded=0;exitX=0.25;exitY=1;exitDx=0;exitDy=0;entryX=1;entryY=0;entryDx=0;entryDy=0;" edge="1" parent="1" source="NmN2kcjJqzy7AaUxx9Se-73" target="NmN2kcjJqzy7AaUxx9Se-81">
          <mxGeometry width="50" height="50" relative="1" as="geometry">
            <mxPoint x="-170" y="-410" as="sourcePoint" />
            <mxPoint x="-120" y="-460" as="targetPoint" />
          </mxGeometry>
        </mxCell>
        <mxCell id="NmN2kcjJqzy7AaUxx9Se-86" value="" style="endArrow=none;html=1;rounded=0;exitX=0;exitY=0.5;exitDx=0;exitDy=0;entryX=1;entryY=0.5;entryDx=0;entryDy=0;" edge="1" parent="1" source="NmN2kcjJqzy7AaUxx9Se-73" target="NmN2kcjJqzy7AaUxx9Se-82">
          <mxGeometry width="50" height="50" relative="1" as="geometry">
            <mxPoint x="-170" y="-410" as="sourcePoint" />
            <mxPoint x="-120" y="-460" as="targetPoint" />
          </mxGeometry>
        </mxCell>
        <mxCell id="NmN2kcjJqzy7AaUxx9Se-89" value="" style="endArrow=none;html=1;rounded=0;exitX=1;exitY=0.25;exitDx=0;exitDy=0;entryX=0;entryY=1;entryDx=0;entryDy=0;" edge="1" parent="1" source="NmN2kcjJqzy7AaUxx9Se-73" target="NmN2kcjJqzy7AaUxx9Se-87">
          <mxGeometry width="50" height="50" relative="1" as="geometry">
            <mxPoint x="-550" y="-420" as="sourcePoint" />
            <mxPoint x="-500" y="-470" as="targetPoint" />
          </mxGeometry>
        </mxCell>
        <mxCell id="NmN2kcjJqzy7AaUxx9Se-90" value="" style="endArrow=none;html=1;rounded=0;entryX=0.5;entryY=1;entryDx=0;entryDy=0;exitX=1;exitY=0;exitDx=0;exitDy=0;" edge="1" parent="1" source="NmN2kcjJqzy7AaUxx9Se-87" target="NmN2kcjJqzy7AaUxx9Se-68">
          <mxGeometry width="50" height="50" relative="1" as="geometry">
            <mxPoint x="-550" y="-420" as="sourcePoint" />
            <mxPoint x="-500" y="-470" as="targetPoint" />
          </mxGeometry>
        </mxCell>
        <mxCell id="NmN2kcjJqzy7AaUxx9Se-91" value="" style="group" connectable="0" vertex="1" parent="1">
          <mxGeometry x="-360" y="-500" width="80" height="80" as="geometry" />
        </mxCell>
        <mxCell id="NmN2kcjJqzy7AaUxx9Se-87" value="" style="rhombus;whiteSpace=wrap;html=1;" vertex="1" parent="NmN2kcjJqzy7AaUxx9Se-91">
          <mxGeometry width="80" height="80" as="geometry" />
        </mxCell>
        <mxCell id="NmN2kcjJqzy7AaUxx9Se-88" value="isAn" style="rhombus;whiteSpace=wrap;html=1;" vertex="1" parent="NmN2kcjJqzy7AaUxx9Se-91">
          <mxGeometry x="5" y="5" width="70" height="70" as="geometry" />
        </mxCell>
        <mxCell id="NmN2kcjJqzy7AaUxx9Se-92" value="" style="group" connectable="0" vertex="1" parent="1">
          <mxGeometry x="-590" y="-390" width="120" height="60" as="geometry" />
        </mxCell>
        <mxCell id="NmN2kcjJqzy7AaUxx9Se-73" value="" style="rounded=0;whiteSpace=wrap;html=1;movable=1;resizable=1;rotatable=1;deletable=1;editable=1;locked=0;connectable=1;" vertex="1" parent="NmN2kcjJqzy7AaUxx9Se-92">
          <mxGeometry width="120" height="60" as="geometry" />
        </mxCell>
        <mxCell id="NmN2kcjJqzy7AaUxx9Se-78" value="OfficialRole" style="rounded=0;whiteSpace=wrap;html=1;movable=1;resizable=1;rotatable=1;deletable=1;editable=1;locked=0;connectable=1;" vertex="1" parent="NmN2kcjJqzy7AaUxx9Se-92">
          <mxGeometry x="10" y="5" width="100" height="50" as="geometry" />
        </mxCell>
      </root>
    </mxGraphModel>
  </diagram>
</mxfile>
